<svg xmlns="http://www.w3.org/2000/svg" data-name="Layer 1" viewBox="0 0 100 125" x="0px" y="0px">
    <path
        d="M89.71,24.21a24.76,24.76,0,0,0-13.26-10.8C71,11.6,64.87,11.16,59,13.86c-4,1.92-6.75,5-9,7.82-2.29-2.84-5-5.92-9.08-7.84-5.85-2.69-12-2.23-17.45-.39C12.21,17.18,5,29.57,7.1,41.09c1.12,5.74,4,10.53,7.06,14.74A98.32,98.32,0,0,0,24.49,67.35c7.3,7.12,15.06,13.51,22.7,20a2.07,2.07,0,0,0,2.82.22,2.11,2.11,0,0,0,2.85-.19l.26-.22c7.61-6.5,15.35-12.88,22.62-20A99,99,0,0,0,86,55.66c3.08-4.22,5.89-9,7-14.76A25.15,25.15,0,0,0,89.71,24.21ZM86.57,40.07c-.67,4.19-2.82,8.41-5.5,12.34a100,100,0,0,1-9.27,11.3C65.06,71,57.69,77.77,50.49,84.77h0a3,3,0,0,0-.49.65,2.79,2.79,0,0,0-.48-.62l-.26-.24c-7.19-7-14.53-13.79-21.24-21a98.31,98.31,0,0,1-9.2-11.29C16.16,48.33,14,44.11,13.4,39.93c-1.12-8.48,4.39-17.29,12.49-19.74,3.95-1.28,8.6-1.38,11.9.3,3.46,1.61,6,5.3,9.4,9.5a5,5,0,0,0,.51.52A3.66,3.66,0,0,0,52.84,30c3.44-4.21,5.95-7.91,9.43-9.51,3.31-1.67,8-1.56,11.93-.25C82.3,22.71,87.8,31.59,86.57,40.07Z" />
</svg>